<?xml version="1.0" encoding="UTF-8" standalone="no"?>
<svg xmlns="http://www.w3.org/2000/svg"
	version="1.1"
	width="63" height="90">

	<defs>
		<filter id="f" x="0" y="0" width="150%" height="150%">
			<feFlood flood-color="#111" result="COLOR" in="offOut" />
			<feComposite operator="in" in="COLOR" in2="SourceAlpha" result="COLORED" />
			<feGaussianBlur result="blurOut" in="COLORED" stdDeviation="3" />
			<feBlend in="SourceGraphic" in2="blurOut" mode="normal" />
		</filter>
	</defs>

	<style type="text/css">
		path { fill: #AD1E23; }
	</style>

	<g transform="translate(-30 120) scale(1 -1)">
		<g transform="translate(65.1211, 81.622)">
			<path d="m 0,0 v -9.853 h -5.538 v 9.961 l -9.565,15.642 h 6.401 L -2.733,5.502 3.308,15.75 h 6.221 z m 3.857,30.059 c -13.769,4.219 -28.351,-3.523 -32.57,-17.292 -4.219,-13.769 3.523,-28.351 17.292,-32.57 2.351,-0.721 4.726,-1.085 7.069,-1.137 l -0.007,-0.007 0.983,-10.28 c 0,0 20.028,14.863 24.425,28.396 0.034,0.106 0.067,0.213 0.1,0.319 4.219,13.769 -3.523,28.352 -17.292,32.571" />
		</g>

		<g transform="translate(46.1097,38.9102)">
			<path d="M 0,0 h 1.548 c 0.78,0 1.359,0.256 1.359,1.136 0,0.847 -0.579,1.147 -1.348,1.147 H 0 Z M 1.693,3.709 C 3.408,3.709 4.6,2.907 4.6,1.158 4.6,-0.568 3.375,-1.37 1.782,-1.37 H 0 v -2.851 h -1.726 v 7.93 z" />
		</g>

		<g transform="translate(53.2147,38.6765)">
			<path d="M 0,0 c 0,-1.704 0.824,-2.729 2.172,-2.74 1.314,0 2.127,1.047 2.127,2.74 0,1.671 -0.824,2.706 -2.149,2.706 C 0.835,2.706 0,1.648 0,0 m 6.059,-0.034 c 0,-2.472 -1.57,-4.142 -3.898,-4.142 -2.35,0 -3.921,1.659 -3.921,4.142 0,2.518 1.56,4.166 3.932,4.166 2.317,0 3.887,-1.682 3.887,-4.166" />
		</g>

		<path d="M 62.213,34.689 h -1.748 v 7.93 h 1.748 z" />

		<g transform="translate(63.7501,42.619)">
			<path d="m 0,0 H 1.771 L 5.034,-5.313 V 0 H 6.705 V -7.93 H 4.967 L 1.682,-2.606 V -7.93 H 0 Z" />
		</g>

		<g transform="translate(77.894,41.1376)">
			<path d="m 0,0 H -2.384 V -6.448 H -4.132 V 0 H -6.515 V 1.481 H 0 Z" />
		</g>
	</g>
</svg>